<svg width="93" height="20" viewBox="0 0 93 20" fill="none" xmlns="http://www.w3.org/2000/svg">
<g clip-path="url(#clip0_15840_6239)">
<mask id="mask0_15840_6239" style="mask-type:luminance" maskUnits="userSpaceOnUse" x="0" y="0" width="93" height="21">
<path d="M92.51 0.5H0V20.5H92.51V0.5Z" fill="white"/>
</mask>
<g mask="url(#mask0_15840_6239)">
<path d="M56.9502 16.0002C58.7302 16.0002 60.1802 14.5602 60.1802 12.7702V7.22023C60.1802 6.15023 61.0502 5.28023 62.1202 5.28023H68.3802C68.3802 5.28023 68.4702 5.24023 68.4702 5.19023V4.08023C68.4702 4.08023 68.4302 3.99023 68.3802 3.99023H60.8402C59.0602 3.99023 57.6102 5.43023 57.6102 7.22023V12.7702C57.6102 13.8402 56.7402 14.7102 55.6702 14.7102H49.5002C49.5002 14.7102 49.4102 14.7502 49.4102 14.8002V15.9102C49.4102 15.9102 49.4502 16.0002 49.5002 16.0002H56.9502Z" fill="white"/>
<path d="M71.0491 8.51V4.09C71.0491 4.09 71.0891 4 71.1391 4H88.1791C88.1791 4 88.2691 4.04 88.2691 4.09V5.2C88.2691 5.2 88.2291 5.29 88.1791 5.29H73.6991C73.6991 5.29 73.6091 5.33 73.6091 5.38V8.26C73.6091 8.77 74.0191 9.18 74.5291 9.18H85.3091C87.1991 9.18 88.7191 10.71 88.7191 12.59C88.7191 14.47 87.1891 16 85.3091 16H71.1291C71.1291 16 71.0391 15.96 71.0391 15.91V14.8C71.0391 14.8 71.0791 14.71 71.1291 14.71H84.0291C85.2091 14.71 86.1591 13.76 86.1591 12.58C86.1591 11.4 85.1891 10.44 84.0091 10.44H72.9891C71.9191 10.44 71.0491 9.57 71.0491 8.5V8.51Z" fill="white"/>
<path d="M45.7401 9.17C46.8101 9.17 47.6801 8.3 47.6801 7.23C47.6801 6.16 46.8101 5.29 45.7401 5.29H32.6701C32.6701 5.29 32.5801 5.25 32.5801 5.2V4.09C32.5801 4.09 32.6201 4 32.6701 4H47.0301C48.8101 4 50.2601 5.44 50.2601 7.23C50.2601 9.02 48.8201 10.46 47.0301 10.46H37.1001C36.0301 10.46 35.1601 11.33 35.1601 12.4V15.92C35.1601 15.92 35.1201 16.01 35.0701 16.01H32.6801C32.6801 16.01 32.5901 15.97 32.5901 15.92V12.4C32.5901 10.62 34.0301 9.17 35.8201 9.17H45.7501H45.7401Z" fill="white"/>
<path d="M9.68945 0V18.66L13.9194 20V4.35C13.9194 3.61 14.2494 3.12 14.7794 3.29C15.4694 3.48 15.5994 4.16 15.5994 4.89V11.14C18.2294 12.41 20.2994 11.14 20.2994 7.78C20.2994 4.42 19.0894 2.82 15.5094 1.59C14.0994 1.12 11.4894 0.33 9.68945 0Z" fill="white"/>
<path d="M14.7188 17.2696L21.5087 14.8496C22.2787 14.5696 22.3988 14.1796 21.7688 13.9796C21.1388 13.7696 20.0087 13.8296 19.2387 14.1096L14.7188 15.6996V13.1596L14.9787 13.0696C14.9787 13.0696 16.2887 12.6096 18.1287 12.4096C19.9687 12.2096 22.2187 12.4396 23.9887 13.0996C25.9787 13.7296 26.2088 14.6596 25.6988 15.2996C25.1888 15.9396 23.9488 16.3996 23.9488 16.3996L14.7287 19.7096V17.2696H14.7188Z" fill="white"/>
<path d="M1.93945 17.0095C-0.100542 16.4395 -0.440542 15.2395 0.489458 14.5395C1.34945 13.9095 2.80945 13.4295 2.80945 13.4295L8.85945 11.2695V13.7295L4.50945 15.2895C3.73945 15.5695 3.61945 15.9495 4.23945 16.1595C4.86945 16.3695 5.98945 16.3095 6.76945 16.0295L8.85945 15.2795V17.4695C8.71945 17.4895 8.56945 17.5195 8.43945 17.5395C6.34945 17.8895 4.12945 17.7395 1.93945 17.0195V17.0095Z" fill="white"/>
<path d="M24.2598 18C24.8498 18 25.2598 18.44 25.2598 19C25.2598 19.56 24.8598 20 24.2598 20C23.6598 20 23.2598 19.56 23.2598 19C23.2598 18.44 23.6698 18 24.2598 18ZM24.2598 19.85C24.7598 19.85 25.0998 19.47 25.0998 19C25.0998 18.53 24.7698 18.15 24.2598 18.15C23.7498 18.15 23.4198 18.53 23.4198 19C23.4198 19.47 23.7498 19.85 24.2598 19.85ZM23.8598 18.42H24.3198C24.5298 18.42 24.6898 18.48 24.6898 18.72C24.6898 18.86 24.6198 18.96 24.4798 19C24.5598 19.02 24.6098 19.08 24.6498 19.21C24.6898 19.34 24.7298 19.46 24.7598 19.57H24.5498C24.5198 19.48 24.4798 19.34 24.4598 19.26C24.4298 19.13 24.3898 19.08 24.2098 19.08H24.0698V19.57H23.8598V18.41V18.42ZM24.0698 18.94H24.2498C24.3998 18.94 24.4898 18.88 24.4898 18.75C24.4898 18.59 24.3798 18.57 24.2698 18.57H24.0698V18.94Z" fill="white"/>
<path d="M91.3295 14.94H91.5095C91.6595 14.94 91.7495 14.88 91.7495 14.75C91.7495 14.59 91.6395 14.57 91.5295 14.57H91.3295V14.94ZM91.1195 14.42H91.5795C91.7895 14.42 91.9495 14.48 91.9495 14.72C91.9495 14.86 91.8795 14.96 91.7395 15C91.8195 15.02 91.8695 15.08 91.9095 15.21C91.9495 15.34 91.9895 15.46 92.0195 15.57H91.8095C91.7795 15.48 91.7395 15.34 91.7195 15.26C91.6895 15.13 91.6495 15.08 91.4695 15.08H91.3295V15.57H91.1195V14.41V14.42ZM91.5195 15.85C92.0195 15.85 92.3595 15.47 92.3595 15C92.3595 14.53 92.0195 14.15 91.5195 14.15C91.0195 14.15 90.6795 14.53 90.6795 15C90.6795 15.47 91.0095 15.85 91.5195 15.85ZM91.5195 14C92.1095 14 92.5195 14.44 92.5195 15C92.5195 15.56 92.1195 16 91.5195 16C90.9195 16 90.5195 15.56 90.5195 15C90.5195 14.44 90.9295 14 91.5195 14Z" fill="white"/>
</g>
</g>
<defs>
<clipPath id="clip0_15840_6239">
<rect width="93" height="20" fill="white"/>
</clipPath>
</defs>
</svg>
